<svg width="54" height="54" viewBox="0 0 54 54" xmlns="http://www.w3.org/2000/svg">
  <!-- 羽毛笔 quill · 占位素材, 可替换 -->
  <defs>
    <linearGradient id="feather" x1="0" y1="0" x2="1" y2="1">
      <stop offset="0%" stop-color="#f7d774"/>
      <stop offset="55%" stop-color="#c77dff"/>
      <stop offset="100%" stop-color="#7b4bd8"/>
    </linearGradient>
  </defs>
  <!-- 羽毛主体 -->
  <path d="M46 6
           C 34 8, 20 18, 12 34
           C 10 38, 9 42, 10 46
           C 22 44, 34 36, 42 22
           C 45 16, 47 10, 46 6 Z"
        fill="url(#feather)" stroke="#5a3a9e" stroke-width="1"/>
  <!-- 羽毛中轴 -->
  <path d="M45 7 C 30 16, 18 30, 10 46"
        fill="none" stroke="#fff8e6" stroke-width="1.2" opacity="0.8"/>
  <!-- 羽毛纹理 -->
  <g stroke="#fff8e6" stroke-width="0.7" opacity="0.5">
    <path d="M40 12 C 34 14, 30 18, 28 22"/>
    <path d="M35 18 C 29 20, 25 24, 23 28"/>
    <path d="M29 25 C 23 27, 19 31, 17 35"/>
  </g>
  <!-- 笔尖(墨点) -->
  <path d="M10 46 L 7 51 L 12 49 Z" fill="#2b1b4d"/>
  <circle cx="8.5" cy="50.5" r="1.6" fill="#1a1030"/>
</svg>
